<?xml version="1.0"?>
<svg width="32" height="32" xmlns="http://www.w3.org/2000/svg" xmlns:svg="http://www.w3.org/2000/svg">
 <g class="layer">
  <title>Layer 1</title>
  <path d="m23.84,2.28c0.24,-0.26 0.38,-0.59 0.37,-0.94c0,-0.35 -0.14,-0.69 -0.39,-0.93c-0.24,-0.25 -0.58,-0.39 -0.93,-0.39c-0.35,-0.01 -0.69,0.13 -0.94,0.37l-10.89,10.9c-1.25,1.25 -1.95,2.94 -1.95,4.71c0,1.77 0.7,3.46 1.95,4.71l10.89,10.9c0.25,0.24 0.59,0.38 0.94,0.37c0.35,0 0.69,-0.14 0.93,-0.39c0.25,-0.24 0.39,-0.58 0.39,-0.93c0.01,-0.35 -0.13,-0.68 -0.37,-0.94l-10.9,-10.89c-0.75,-0.75 -1.17,-1.77 -1.17,-2.83c0,-1.06 0.42,-2.08 1.17,-2.83l10.9,-10.89z" fill="#C2C8CD" id="svg_1" transform="rotate(180 17 16)"/>
 </g>
</svg>